<svg width="50" height="50" viewBox="0 0 50 50" fill="none" xmlns="http://www.w3.org/2000/svg">
<path d="M25 0C20.0555 0 15.222 1.46622 11.1108 4.21326C6.99952 6.96029 3.79521 10.8648 1.90302 15.4329C0.0108321 20.0011 -0.484251 25.0277 0.480379 29.8773C1.44501 34.7268 3.82603 39.1813 7.32234 42.6777C10.8187 46.174 15.2732 48.555 20.1228 49.5196C24.9723 50.4843 29.9989 49.9892 34.5671 48.097C39.1352 46.2048 43.0397 43.0005 45.7867 38.8892C48.5338 34.778 50 29.9445 50 25C50 21.7169 49.3534 18.466 48.097 15.4329C46.8406 12.3998 44.9991 9.64379 42.6777 7.32233C40.3562 5.00086 37.6002 3.15938 34.5671 1.90301C31.534 0.646644 28.2831 0 25 0ZM33.025 29.475C33.2593 29.7074 33.4453 29.9839 33.5722 30.2886C33.6992 30.5932 33.7645 30.92 33.7645 31.25C33.7645 31.58 33.6992 31.9068 33.5722 32.2114C33.4453 32.5161 33.2593 32.7926 33.025 33.025C32.7926 33.2593 32.5161 33.4453 32.2114 33.5722C31.9068 33.6991 31.58 33.7645 31.25 33.7645C30.92 33.7645 30.5932 33.6991 30.2886 33.5722C29.9839 33.4453 29.7074 33.2593 29.475 33.025L25 28.525L20.525 33.025C20.2926 33.2593 20.0161 33.4453 19.7114 33.5722C19.4068 33.6991 19.08 33.7645 18.75 33.7645C18.42 33.7645 18.0932 33.6991 17.7886 33.5722C17.4839 33.4453 17.2074 33.2593 16.975 33.025C16.7407 32.7926 16.5547 32.5161 16.4278 32.2114C16.3009 31.9068 16.2355 31.58 16.2355 31.25C16.2355 30.92 16.3009 30.5932 16.4278 30.2886C16.5547 29.9839 16.7407 29.7074 16.975 29.475L21.475 25L16.975 20.525C16.5042 20.0542 16.2398 19.4158 16.2398 18.75C16.2398 18.0842 16.5042 17.4458 16.975 16.975C17.4458 16.5042 18.0843 16.2398 18.75 16.2398C19.4158 16.2398 20.0542 16.5042 20.525 16.975L25 21.475L29.475 16.975C29.9458 16.5042 30.5843 16.2398 31.25 16.2398C31.9158 16.2398 32.5542 16.5042 33.025 16.975C33.4958 17.4458 33.7602 18.0842 33.7602 18.75C33.7602 19.4158 33.4958 20.0542 33.025 20.525L28.525 25L33.025 29.475Z" fill="#C1FF72"/>
</svg>
