<svg width="400" height="86" viewBox="0 0 400 86" fill="none" xmlns="http://www.w3.org/2000/svg">
<path fill-rule="evenodd" clip-rule="evenodd" d="M223.187 15.4578C223.306 15.4578 224.891 16.0127 226.754 16.6865C228.617 17.3603 230.361 18.1134 230.638 18.3512C230.916 18.6286 231.153 19.1835 231.114 19.6195C231.114 20.0555 230.876 21.0067 230.598 21.7202C230.361 22.4336 230.044 22.9885 229.925 22.9885C229.806 22.9885 227.864 22.3147 225.565 21.4427C223.266 20.6104 221.086 19.778 220.69 19.6591C220.293 19.5006 219.976 18.9853 219.937 18.3115C219.897 17.3999 220.174 17.0432 221.443 16.3298C222.275 15.8541 223.068 15.4578 223.187 15.4578V15.4578ZM242.449 22.5922C242.767 22.5922 245.343 23.4245 248.197 24.4947C253.111 26.2386 253.428 26.4368 253.983 27.7448C254.261 28.4978 254.499 29.4887 254.419 29.8851C254.34 30.2814 254.023 30.7967 253.706 31.0345C253.27 31.3119 251.645 30.9156 247.761 29.5283C243.837 28.1411 242.251 27.7051 241.815 28.0222C241.498 28.2204 239.675 32.5803 237.772 37.6932C234.681 46.0167 234.324 47.2453 234.324 49.7424C234.324 51.2485 234.562 53.7852 234.879 55.2913C235.196 56.7975 235.87 59.0567 236.346 60.2457C236.821 61.4348 237.852 63.4958 238.605 64.8038C239.358 66.1118 241.498 68.7277 243.361 70.5906C246.294 73.5236 247.325 74.2767 250.931 76.0206C253.23 77.1304 256.441 78.3195 258.066 78.6762C259.81 79.0725 262.782 79.35 265.2 79.35C267.499 79.3896 270.432 79.1518 271.74 78.8744C273.048 78.5969 275.466 77.8835 277.091 77.2493C278.716 76.6151 281.292 75.3072 282.838 74.3163C284.384 73.3254 285.652 72.5327 285.692 72.5327C285.771 72.5327 285.493 72.9291 285.097 73.4443C284.74 73.9199 283.512 75.1883 282.441 76.2188C281.332 77.2889 279.469 78.7951 278.28 79.5878C277.091 80.3805 274.871 81.5299 273.325 82.1641C271.78 82.7983 269.401 83.591 267.975 83.8684C266.548 84.1855 263.337 84.4233 260.84 84.4233C257.511 84.4233 255.41 84.2251 253.111 83.6306C251.367 83.1946 248.87 82.3226 247.562 81.7281C246.254 81.0939 244.114 79.9049 242.806 78.9933C241.498 78.1213 239.279 76.1792 237.852 74.6334C236.187 72.8498 234.641 70.6302 233.452 68.3314C232.461 66.3892 231.312 63.6147 230.876 62.1086C230.48 60.6421 230.004 59.453 229.806 59.453C229.647 59.453 229.449 59.8098 229.33 60.2457C229.198 60.7742 228.802 61.0385 228.141 61.0385C227.586 61.0385 223.821 59.9683 219.699 58.6207C215.616 57.3127 211.851 56.2822 211.296 56.3615C210.464 56.4804 209.195 58.4622 202.18 70.868C197.701 78.7555 193.777 85.3746 193.46 85.5727C193.143 85.7709 192.549 85.8105 192.152 85.652C191.756 85.5331 191.32 85.0575 191.241 84.6215C191.122 84.1855 191.28 83.1153 191.597 82.2434C191.994 81.1336 192.39 80.6183 192.985 80.5787C193.698 80.4994 195.482 77.606 201.665 66.5081C205.985 58.8189 209.869 52.1205 211.098 50.654L219.223 53.2699C223.702 54.6968 227.665 55.8859 228.022 55.8859C228.419 55.8859 228.973 55.4895 229.291 55.0139C229.608 54.4986 232.382 47.2453 235.474 38.8427C238.565 30.44 241.26 23.3452 241.498 23.0678C241.736 22.83 242.132 22.5922 242.449 22.5922ZM0.0396354 23.3849H4.39952V31.7083H16.6865C23.4641 31.7083 28.9734 31.8272 28.9734 31.9857C28.9734 32.1839 28.0222 33.5712 26.8728 35.0773C25.7233 36.5834 20.214 44.1538 4.39952 65.7947V78.8744H44.0349V84.027H0.0396354L0 71.1455L1.3476 69.3619C2.10067 68.371 7.57035 60.8799 13.5157 52.715C19.461 44.5501 24.3757 37.614 24.455 37.3365C24.5739 36.9798 21.958 36.8609 0.0396354 36.8609V23.3849ZM48.7911 23.3849H53.151V78.8744H87.6338V84.027H48.7911V23.3849ZM92.0729 23.3849H95.9572V78.8744H108.641V84.027H91.7955L91.6766 61.9104C91.5973 49.782 91.6369 36.1474 91.7955 31.5894L92.0729 23.3849ZM295.402 23.3849H299.683V78.8744H311.97V84.027H295.323L295.244 71.0662C295.164 61.2763 295.244 57.4713 295.68 55.4895C295.957 54.1023 296.235 50.8918 296.235 48.3551C296.235 45.8581 295.957 42.6476 295.68 41.2208C295.283 39.4372 295.164 36.4249 295.244 31.0345L295.402 23.3849ZM334.602 23.3849H338.962V37.6536C338.962 45.5014 338.803 51.843 338.644 51.7638C338.486 51.6845 337.535 50.2973 334.641 45.7788L334.602 23.3849ZM356.797 23.3849H361.157V78.8744H395.64V84.027H356.797V23.3849ZM70.2338 31.7083H87.6734V36.8609H70.2338V31.7083ZM150.971 31.7083C151.09 31.7083 150.852 32.065 150.416 32.5406C150.02 33.0163 149.703 33.4919 149.742 33.6504C149.782 33.7693 149.663 34.245 149.465 34.6809C149.306 35.1169 148.87 36.1871 148.514 37.0591C148.157 37.931 147.602 39.9524 147.285 41.4982C146.968 43.0836 146.73 46.2148 146.73 48.4344C146.73 50.6936 146.968 53.7455 147.325 55.2913C147.642 56.7975 148.276 59.0567 148.751 60.2457C149.267 61.4348 150.258 63.4958 151.011 64.8038C151.764 66.1118 153.904 68.7277 155.807 70.5906C158.74 73.5236 159.77 74.2767 163.377 75.981C165.636 77.0908 168.411 78.2006 169.52 78.478C170.591 78.7158 172.81 79.0725 174.475 79.2707C176.258 79.4689 178.914 79.4689 181.213 79.2311C183.274 79.0329 186.445 78.3591 191.518 76.6944L191.28 78.0817C191.122 78.8347 191.003 79.5085 190.963 79.5085C190.923 79.5482 189.933 80.1031 188.744 80.7769C187.515 81.4507 185.137 82.4812 183.393 83.0757C180.698 83.9873 179.35 84.1855 174.673 84.344C169.877 84.5026 168.648 84.4233 165.755 83.6702C163.892 83.1946 161.316 82.3226 160.008 81.7281C158.7 81.0939 156.56 79.9049 155.252 78.9933C153.944 78.1213 151.724 76.2188 150.377 74.7523C149.029 73.3254 147.166 70.8284 146.294 69.243C145.422 67.6972 144.233 64.9624 143.678 63.2184C142.687 60.325 142.608 59.4927 142.568 53.9041C142.568 48.0777 142.608 47.6417 143.639 45.3825C144.233 44.0745 144.867 42.0531 145.105 40.9037C145.343 39.7939 146.096 37.8914 146.849 36.742C147.562 35.6322 148.751 34.0071 149.465 33.1748C150.178 32.3821 150.852 31.7083 150.971 31.7083ZM378.201 31.7083H395.64V36.8609H378.201V31.7083ZM316.964 45.977C317.043 45.977 322.037 53.3888 338.962 78.8744H351.248V84.027L334.403 83.9477L316.766 57.2731V51.6052C316.766 48.5137 316.845 45.977 316.964 45.977ZM138.327 52.3583C138.367 52.3187 138.208 52.6358 137.931 52.9925C137.654 53.3888 136.623 54.5383 135.632 55.6084C134.641 56.6389 133.69 57.4713 133.531 57.4713C133.373 57.4713 132.977 56.9164 132.66 56.2822C132.184 55.3706 132.184 55.0931 132.541 55.0931C132.818 55.0931 134.205 54.459 135.632 53.7455C137.019 52.9925 138.248 52.3583 138.327 52.3583ZM70.2338 54.3004H84.8989V59.453H70.2338V54.3004ZM378.201 54.3004H392.866V59.453H378.201V54.3004ZM113.912 56.6786C114.665 56.6389 115.656 58.2243 126.714 78.6762L132.461 78.7951C137.376 78.8744 138.248 78.9933 138.605 79.5878C138.843 79.9445 139.516 81.0939 141.181 84.027H122.354L119.382 78.3987C117.717 75.3072 115.616 71.4626 113 66.7856V61.7122C113.04 56.7578 113.04 56.6786 113.912 56.6786Z" fill="black"/>
<path d="M23.584 64.8038L36.0691 47.8399L48.5939 30.8759L48.7128 39.3183C48.7524 43.9556 48.7524 51.6845 48.5939 65.2002L23.584 64.8038Z" fill="#1F55DF"/>
<path d="M87.6347 36.8609V34.2846V31.7083H91.5983V65.3983H70.1952V59.453H84.8602L85.0584 54.4986L89.6165 54.3004V41.6171H70.1952V36.8609H87.6347Z" fill="#1F55DF"/>
<path d="M220.096 12.7229C220.215 11.9302 221.958 10.8997 231.511 5.90567C237.733 2.65557 243.203 0 243.718 0C244.273 0 244.788 0.396354 245.145 1.07015C245.423 1.70432 247.682 7.05509 250.1 12.9608C252.517 18.9061 254.499 24.0983 254.499 24.455C254.539 24.8514 254.261 25.4459 253.905 25.763C253.35 26.2782 252.715 26.1593 248.118 24.455C245.304 23.4245 242.767 22.5922 242.529 22.5922C242.252 22.5525 241.816 22.7903 241.538 23.0678C241.301 23.3452 238.566 30.44 235.474 38.8426C232.383 47.2453 229.608 54.4986 229.291 55.0139C228.974 55.4895 228.419 55.8858 228.062 55.8858C227.666 55.8858 223.702 54.6968 211.098 50.654L210.306 51.6052C209.87 52.1205 205.946 58.8585 201.586 66.5478C194.333 79.35 193.58 80.4994 192.708 80.3805C192.192 80.3409 191.598 79.9841 191.36 79.6671C191.083 79.2311 192.589 74.1974 197.028 60.8403C200.397 50.8125 203.488 41.6171 203.964 40.4281C204.519 38.9748 205.061 38.2085 205.589 38.1292C205.985 38.0499 209.79 39.1201 213.992 40.5073C219.62 42.3306 221.8 42.8855 222.276 42.608C222.593 42.4098 224.733 37.2969 226.992 31.3119C229.251 25.327 231.114 20.0555 231.114 19.6195C231.154 19.1835 230.916 18.6286 230.639 18.3512C230.361 18.1134 228.062 17.1621 225.565 16.2505C223.068 15.3389 220.769 14.3876 220.492 14.1102C220.175 13.8724 220.016 13.2382 220.096 12.7229Z" fill="#00BF63"/>
<path d="M166.309 19.3024C167.379 18.8664 169.361 18.3116 170.669 18.0341C171.977 17.7567 175.108 17.4792 177.605 17.4792C180.895 17.4396 183.114 17.6774 185.532 18.2323C187.395 18.7079 190.328 19.7384 192.072 20.6104C193.816 21.4824 196.392 23.1074 197.819 24.2965C199.246 25.4459 201.267 27.5466 202.337 28.9735C203.408 30.3607 204.953 32.937 207.292 37.8518L206.023 38.05C204.993 38.2085 204.676 38.5256 204.081 40.0317C203.725 41.0226 200.831 49.5838 191.913 76.2981L189.218 77.3286C187.752 77.9231 185.453 78.5969 184.145 78.8744C182.837 79.1518 179.904 79.3896 177.605 79.35C175.187 79.35 172.215 79.0726 170.471 78.6762C168.846 78.3195 165.635 77.1304 163.336 76.0206C159.729 74.2767 158.699 73.5236 155.766 70.5906C153.903 68.7277 151.763 66.1118 151.01 64.8038C150.257 63.4959 149.226 61.4348 148.75 60.2458C148.275 59.0567 147.601 56.7975 147.284 55.2913C146.967 53.7852 146.689 50.6936 146.689 48.4344C146.689 46.2148 146.967 43.0836 147.284 41.5379C147.601 39.9525 148.156 37.9311 148.513 37.0591C148.869 36.1871 149.305 35.1169 149.464 34.681C149.622 34.245 149.781 33.6901 149.821 33.4919C149.86 33.2937 150.217 32.7388 150.613 32.3028C150.97 31.8668 151.802 30.7174 152.476 29.7662C153.11 28.8149 154.775 26.9521 156.202 25.6045C157.629 24.2569 160.007 22.4733 161.553 21.6013C163.098 20.7689 165.199 19.6988 166.309 19.3024Z" fill="white"/>
<path d="M255.092 18.8664C256.162 18.5097 257.867 18.0737 258.857 17.8756C259.848 17.6774 262.702 17.5188 265.199 17.4792C268.528 17.4396 270.669 17.6774 273.126 18.2323C274.989 18.7079 277.922 19.7384 279.666 20.6104C281.41 21.4824 283.986 23.1074 285.413 24.2965C286.84 25.4459 288.861 27.5466 289.932 28.9735C291.002 30.3607 292.547 32.937 293.38 34.681C294.252 36.4249 295.243 39.2787 295.599 41.0226C295.956 42.8062 296.234 46.0167 296.234 48.3551C296.234 50.6936 295.956 53.9041 295.599 55.6877C295.243 57.4316 294.252 60.2854 293.38 62.0293C292.547 63.7733 291.041 66.2703 290.05 67.5783C289.099 68.8863 287.038 70.9869 285.572 72.2553C284.065 73.484 281.41 75.2279 279.666 76.0999C277.922 76.9719 275.068 78.042 273.324 78.478C271.025 79.0725 268.885 79.3104 265.595 79.35C262.662 79.35 259.967 79.1122 258.065 78.6762C256.44 78.3195 253.229 77.1304 250.93 76.0206C247.324 74.2767 246.293 73.5236 243.36 70.5906C241.497 68.7277 239.357 66.1118 238.604 64.8038C237.851 63.4959 236.82 61.4348 236.345 60.2458C235.869 59.0567 235.195 56.7975 234.878 55.2913C234.561 53.7852 234.323 51.2485 234.323 49.7424C234.323 47.2454 234.68 46.0167 237.771 37.6932C239.674 32.5803 241.497 28.2204 241.814 28.0222C242.25 27.7051 243.836 28.1015 247.759 29.4887C250.693 30.5589 253.348 31.2723 253.586 31.1534C253.863 31.0345 254.22 30.5985 254.379 30.2418C254.498 29.8454 254.339 28.7753 253.982 27.8637C253.388 26.3179 253.388 26.1197 253.903 25.6837C254.26 25.4063 254.537 24.8514 254.497 24.4947C254.497 24.0983 254.141 22.83 253.705 21.7202C253.269 20.5708 252.952 19.5799 252.991 19.5799C253.071 19.5402 253.982 19.2232 255.092 18.8664Z" fill="white"/>
<path d="M4.39844 31.7083V24.9703V18.2323H48.1955L48.5126 22.4733C48.6711 24.8514 48.79 27.6655 48.79 28.7356C48.7504 30.7174 48.7108 30.7967 23.5819 64.8038L48.5919 65.2002V78.6762L4.39844 78.8744V65.9929L14.3073 52.3187C19.777 44.788 25.2863 37.2573 26.515 35.5529C27.7437 33.8486 28.8138 32.3028 28.8534 32.1047C28.9327 31.8668 24.2954 31.7083 4.39844 31.7083Z" fill="white"/>
<path d="M53.1499 78.8744V48.5533V18.2323H91.9926V31.7083H70.1931V41.6171H89.6144V54.3005H87.3156C86.0869 54.3401 81.727 54.3401 70.1931 54.3005V65.3983H91.9926V78.8744H53.1499Z" fill="white"/>
<path d="M95.9561 78.8744L95.9957 48.5137V18.1926L112.325 18.3512C126.039 18.4701 129.012 18.589 130.835 19.1439C132.024 19.5006 134.085 20.333 135.393 20.9671C136.781 21.6409 138.683 23.0678 139.991 24.455C141.299 25.8026 142.765 27.824 143.479 29.3302C144.311 31.0741 144.826 32.9766 145.104 35.2755C145.381 37.4951 145.381 39.3183 145.144 40.6263C144.945 41.736 144.391 43.5989 143.955 44.788C143.519 45.977 142.488 47.8399 141.656 48.91C140.823 49.9802 139.159 51.526 137.97 52.3187C136.781 53.151 134.957 54.1419 132.024 55.2913L138.762 66.9045C142.488 73.2462 145.5 78.5573 145.5 78.6762C145.5 78.7951 141.259 78.8347 126.674 78.6762L120.728 67.6576C115.615 58.2244 114.664 56.6389 112.999 56.6786V78.8744H95.9561Z" fill="white"/>
<path d="M299.721 78.8347V48.5137V18.1926H316.566L325.286 31.5101C330.082 38.803 334.125 44.788 334.283 44.788C334.442 44.7483 334.601 44.9861 334.601 45.2636C334.601 45.541 335.552 47.1661 338.762 52.0809L338.921 18.1926H356.004V78.8347H338.96L316.963 45.7392L316.765 78.8347H299.721Z" fill="white"/>
<path d="M361.156 78.8347V48.5137V18.1926H399.999V31.6687H378.199V41.5775H397.224V54.2608L395.124 54.3005C393.974 54.3005 389.694 54.3005 378.199 54.2608V65.3587H399.999V78.8347H361.156Z" fill="white"/>
<path d="M113 37.6536V35.0773V32.501H118.351C122.156 32.501 124.019 32.6595 124.772 33.0559C125.406 33.373 126.317 34.0864 126.872 34.6809C127.665 35.5133 127.903 36.2267 127.982 38.1688C128.061 39.9524 127.903 41.0226 127.388 42.0135C126.991 42.8062 126.08 43.7178 123.9 44.7879L123.622 42.9251C123.424 41.8549 123.028 40.6262 122.711 40.1506C122.394 39.6353 121.522 38.8823 120.848 38.4463C119.817 37.8121 118.826 37.6536 113 37.6536Z" fill="black"/>
<path d="M168.846 35.7114C169.837 34.9187 171.502 33.9675 172.612 33.5711C174.118 33.0559 175.545 32.8973 178.2 33.0162C180.697 33.0955 182.322 33.373 183.551 33.9278C184.542 34.3638 186.008 35.3547 186.88 36.1078C187.713 36.8609 188.822 38.1688 189.338 39.0408C189.853 39.9128 190.566 41.6171 190.883 42.8062C191.201 43.9952 191.478 46.5319 191.478 48.474C191.478 50.6936 191.24 52.715 190.765 54.1815C190.368 55.4498 189.496 57.2731 188.822 58.264C188.149 59.2548 187.316 60.325 186.96 60.6421C186.603 60.9592 186.246 61.1573 186.127 61.0384C186.048 60.9195 186.246 59.8494 186.603 58.6603C187.039 57.0749 187.158 55.3706 187.039 52.3187C186.88 48.7911 186.682 47.7606 185.691 45.6203C185.017 44.1141 183.828 42.4495 182.758 41.4189C181.767 40.5073 179.984 39.3975 178.676 38.9219C177.13 38.3274 175.505 38.0499 173.523 38.0499C171.977 38.0499 169.877 38.2877 168.886 38.6048C167.895 38.8823 166.746 39.2786 165.517 39.8335L166.31 38.4859C166.746 37.7725 167.895 36.5041 168.846 35.7114Z" fill="black"/>
<path d="M256.44 35.7114C257.431 34.9187 259.096 33.9675 260.206 33.5711C261.712 33.0559 263.139 32.8973 265.794 33.0162C268.291 33.0955 269.916 33.373 271.145 33.9278C272.136 34.3638 273.602 35.3547 274.474 36.1078C275.307 36.8609 276.417 38.1688 276.932 39.0408C277.447 39.9128 278.161 41.6171 278.478 42.8062C278.795 43.9952 279.072 46.5319 279.072 48.474C279.072 50.6936 278.834 52.715 278.359 54.2212C277.962 55.4498 277.09 57.2731 276.417 58.264C275.743 59.2548 274.91 60.325 274.554 60.6421C274.197 60.9592 273.84 61.1573 273.721 61.0384C273.642 60.9195 273.84 59.8494 274.197 58.6603C274.633 57.0749 274.752 55.3706 274.633 52.3187C274.474 48.7911 274.276 47.7606 273.285 45.6203C272.612 44.1141 271.423 42.4495 270.352 41.4189C269.361 40.5073 267.578 39.3975 266.27 38.9219C264.724 38.3274 263.099 38.0499 261.117 38.0499C259.572 38.0499 257.471 38.2877 256.48 38.6048C255.489 38.8823 254.34 39.2786 253.111 39.8335L253.904 38.4859C254.34 37.7725 255.489 36.5041 256.44 35.7114Z" fill="black"/>
<path d="M113 44.7879V41.2208V37.6536H116.25C119.025 37.6139 119.738 37.7725 120.927 38.5256C121.68 39.0408 122.631 40.0713 122.988 40.8244C123.384 41.5775 123.702 42.8062 123.702 44.7879H113Z" fill="#1F55DF"/>
<path d="M164.843 41.736C165.517 39.7146 165.556 39.6353 167.895 38.8823C169.401 38.367 171.383 38.0896 173.365 38.0499C175.584 38.0499 177.051 38.2877 178.715 38.9219C179.984 39.3975 181.767 40.5073 182.758 41.4189C183.828 42.4495 185.017 44.1141 185.691 45.6203C186.682 47.7606 186.88 48.7911 187.039 52.3187C187.158 55.3706 187.039 57.0749 186.603 58.6603C186.246 59.8494 186.048 60.9195 186.127 61.0384C186.246 61.1573 185.176 61.7519 183.828 62.4257C181.648 63.4562 180.975 63.6147 177.606 63.6147C174.395 63.6147 173.523 63.4562 171.66 62.5842C170.471 62.0293 168.767 60.8799 167.935 60.0079C167.063 59.1756 165.953 57.5902 165.438 56.4804C164.962 55.4102 164.328 53.3492 164.09 51.9223C163.852 50.4954 163.773 48.0777 163.892 46.5715C164.05 45.0654 164.447 42.8854 164.843 41.736Z" fill="#1F55DF"/>
<path d="M252.437 41.736C253.111 39.7146 253.151 39.6353 255.489 38.8823C256.995 38.367 258.977 38.0896 260.959 38.0499C263.178 38.0499 264.645 38.2877 266.31 38.9219C267.578 39.3975 269.361 40.5073 270.352 41.4189C271.423 42.4495 272.612 44.1141 273.285 45.6203C274.276 47.7606 274.474 48.7911 274.633 52.3187C274.752 55.3706 274.633 57.0749 274.197 58.6603C273.84 59.8494 273.642 60.9195 273.721 61.0384C273.84 61.1573 272.77 61.7519 271.423 62.4257C269.243 63.4562 268.569 63.6147 265.2 63.6147C261.989 63.6147 261.117 63.4562 259.254 62.5842C258.065 62.0293 256.361 60.8799 255.529 60.0079C254.657 59.1756 253.547 57.5505 253.032 56.4804C252.556 55.4102 251.922 53.3492 251.684 51.9223C251.446 50.4954 251.367 48.0777 251.486 46.5715C251.644 45.0654 252.041 42.8854 252.437 41.736Z" fill="#1F55DF"/>
</svg>
